<svg xmlns="http://www.w3.org/2000/svg" viewBox="0 0 60.18 195.47"><defs><style>.cls-1{fill:#ab8476;}.cls-2{fill:#fff;}</style></defs><title>peso4</title><g id="Layer_2" data-name="Layer 2"><g id="Layer_1-2" data-name="Layer 1"><path class="cls-1" d="M60.18,195.47V0H32.66c-6,0-9.95,6.23-8.7,12.36.11.51.49.77.31,1.24a.85.85,0,0,0-1.17,0,3.26,3.26,0,0,0,.28,2.56c.73.86.89,2.9,1.73,2.94C26,22.14,27.43,23.6,28,25.81,29,30,23.34,36.55,17.58,38.56,1.31,44.25,8.84,59.22,4.92,73.22c-1.21,4.33-1.57,7.17-3.33,18.66C.35,100-.74,106.11.65,110.55c1,3.18,3.21,5.16,3.47,4.94s-.79-1.7-1.05-4.28.41-5.31.81-5.3c.86,0,1.08,17.4,1.79-1.41a16.3,16.3,0,0,0-.61-4.91c-.89-3.29,8.68-15.83,9.46-22.4.63-5.31,1.26-6.45,2-8.2a38,38,0,0,0,2.16-14.38c0-.78-1.22,8.13-1.38,18-.06,3.73-.44,4.49-2,8.52-.69,1.79-.14,4.84-1,6.63-8.68,18-4.38,28-3.38,49.5.48,10.19,10.69,39.08,5.57,46.43-1.68,2.42-2.87,4.63-5.5,6.26-2.25,1.38-3.42,1.33-3.38,2.37s4,3.38,6.9,2.9,3.17-2.83,6.76-3.54c2.93-.58,4.44-2.08,5-3.47.81-1.95.44-3.76-.18-7.12-.42-2.25.5-3.46.93-6.27,5.37-34.82,2.43-31,2.47-41.32a60.4,60.4,0,0,1,1.87-11.82c1.83-6.63,1.12-16.13,1.08-18,0-.41.25,29.81.2,91.75Z"/><path class="cls-2" d="M38.39,176.51l.51-.79a1.34,1.34,0,0,0,1,.48c.65,0,1-.3,1-.91a.86.86,0,0,0-.28-.67,1.09,1.09,0,0,0-.76-.26h-.18v-.84h.15c.59,0,.88-.24.88-.73s-.27-.76-.82-.76a1.19,1.19,0,0,0-.82.39l-.47-.7a1.43,1.43,0,0,1,.57-.39,2,2,0,0,1,.78-.17,2,2,0,0,1,1.33.39,1.34,1.34,0,0,1,.48,1.1,1.4,1.4,0,0,1-.72,1.27,1.48,1.48,0,0,1,.91,1.43,1.56,1.56,0,0,1-.54,1.27,2.25,2.25,0,0,1-1.49.45A2.13,2.13,0,0,1,38.39,176.51Z"/><path class="cls-2" d="M42.81,174a3.35,3.35,0,0,1,.57-2,1.78,1.78,0,0,1,1.53-.81c1.33,0,2,1,2,2.92a3.85,3.85,0,0,1-.54,2.17,1.7,1.7,0,0,1-1.51.82,1.73,1.73,0,0,1-1.55-.75A4.4,4.4,0,0,1,42.81,174Zm1.06.07a4.7,4.7,0,0,0,.22,1.69.76.76,0,0,0,.74.54.82.82,0,0,0,.79-.49,4.38,4.38,0,0,0,.23-1.73,4,4,0,0,0-.22-1.61.78.78,0,0,0-.74-.44Q43.87,172,43.87,174Z"/><path class="cls-2" d="M48.05,178.45l-.33-.43q.72-.53.72-.84a.4.4,0,0,0-.09-.23.57.57,0,0,1-.37-.5.47.47,0,0,1,.2-.39.76.76,0,0,1,.48-.15.61.61,0,0,1,.47.2.65.65,0,0,1,.2.48,1.72,1.72,0,0,1-.23.9A3.35,3.35,0,0,1,48.05,178.45Z"/><path class="cls-2" d="M50.44,174a3.35,3.35,0,0,1,.57-2,1.78,1.78,0,0,1,1.53-.81c1.33,0,2,1,2,2.92a3.85,3.85,0,0,1-.54,2.17,1.69,1.69,0,0,1-1.51.82,1.71,1.71,0,0,1-1.54-.75A4.31,4.31,0,0,1,50.44,174Zm1.05.07a4.7,4.7,0,0,0,.22,1.69.77.77,0,0,0,.74.54.82.82,0,0,0,.79-.49,4.34,4.34,0,0,0,.24-1.73,3.94,3.94,0,0,0-.23-1.61.76.76,0,0,0-.73-.44C51.83,172,51.49,172.66,51.49,174Z"/><path class="cls-2" d="M38.39,186.11l.51-.78a1.34,1.34,0,0,0,1,.48c.65,0,1-.31,1-.91a.87.87,0,0,0-.28-.68,1.09,1.09,0,0,0-.76-.26h-.18v-.83h.15c.59,0,.88-.25.88-.74s-.27-.76-.82-.76a1.16,1.16,0,0,0-.82.4l-.47-.7a1.44,1.44,0,0,1,.57-.4,2,2,0,0,1,.78-.16,2,2,0,0,1,1.33.39,1.32,1.32,0,0,1,.48,1.09,1.39,1.39,0,0,1-.72,1.27A1.49,1.49,0,0,1,41.9,185a1.56,1.56,0,0,1-.54,1.27,2.25,2.25,0,0,1-1.49.45A2.13,2.13,0,0,1,38.39,186.11Z"/><path class="cls-2" d="M46.36,185.09v1.5h-1v-1.5H42.78v-.58l3.14-3.67h.44v3.45h.58v.8Zm-1-2.52-1.47,1.72h1.47Z"/><path class="cls-2" d="M48.05,188.05l-.33-.42q.72-.54.72-.84a.35.35,0,0,0-.09-.23.57.57,0,0,1-.37-.51.5.5,0,0,1,.2-.39.76.76,0,0,1,.48-.15.68.68,0,0,1,.67.68,1.72,1.72,0,0,1-.23.9A3.13,3.13,0,0,1,48.05,188.05Z"/><path class="cls-2" d="M51.91,186.7l-.54-.57a3.76,3.76,0,0,0,1.68-1.72,1.56,1.56,0,0,1-.66.12,1.72,1.72,0,0,1-1.3-.5,1.85,1.85,0,0,1-.49-1.36,1.89,1.89,0,0,1,.5-1.38,1.69,1.69,0,0,1,1.27-.52c1.33,0,2,.83,2,2.51a3.59,3.59,0,0,1-.78,2.12A3,3,0,0,1,51.91,186.7Zm-.28-4.07a1.17,1.17,0,0,0,.23.76.7.7,0,0,0,.58.28c.58,0,.87-.33.87-1s-.3-1.06-.89-1.06a.68.68,0,0,0-.57.27A1.1,1.1,0,0,0,51.63,182.63Z"/><path class="cls-2" d="M51.14,156.27a5.16,5.16,0,0,1-1.91,2,5.53,5.53,0,0,1-5.49,0,5.16,5.16,0,0,1-1.91-2,6,6,0,0,1-.7-2.91,6,6,0,0,1,.7-2.9,5.28,5.28,0,0,1,9.31,0,6,6,0,0,1,.7,2.9A6,6,0,0,1,51.14,156.27Zm-1.76-4.57a3.13,3.13,0,0,0-1.18-1.16,3.71,3.71,0,0,0-3.43,0,3.13,3.13,0,0,0-1.18,1.16,3.49,3.49,0,0,0,0,3.32,3.13,3.13,0,0,0,1.18,1.16,3.71,3.71,0,0,0,3.43,0A3.13,3.13,0,0,0,49.38,155a3.49,3.49,0,0,0,0-3.32Z"/><path class="cls-2" d="M47.22,136.9a2.63,2.63,0,0,1,1.62-.5,2.39,2.39,0,0,1,2.09,1.06,5.37,5.37,0,0,1,.73,3.08v5.35H41.31v-5a5,5,0,0,1,.72-2.91,2.29,2.29,0,0,1,2-1,2.48,2.48,0,0,1,2.28,1.37A2.77,2.77,0,0,1,47.22,136.9Zm-4.11,6.61h2.44v-2.38a2.35,2.35,0,0,0-.31-1.34,1,1,0,0,0-.91-.46,1,1,0,0,0-.91.46,2.43,2.43,0,0,0-.31,1.34Zm6.44-4.22a1.08,1.08,0,0,0-1-.48c-.85,0-1.28.64-1.28,1.91v2.79h2.56v-2.79A2.73,2.73,0,0,0,49.55,139.29Z"/><path class="cls-2" d="M49.74,126.57h1.92v8H41.31v-7.82h1.92v5.44h2.25v-4.8h1.86v4.8h2.4Z"/><path class="cls-2" d="M51.51,123.63a5.73,5.73,0,0,1-.87,1.84l-1.8-.81a5.68,5.68,0,0,0,.78-1.58,5.86,5.86,0,0,0,.3-1.84,2.9,2.9,0,0,0-.31-1.5.9.9,0,0,0-.8-.49.77.77,0,0,0-.62.29,2.15,2.15,0,0,0-.39.74,11.69,11.69,0,0,0-.32,1.21,16.51,16.51,0,0,1-.57,1.94,3.06,3.06,0,0,1-.9,1.3,2.41,2.41,0,0,1-1.65.54,2.93,2.93,0,0,1-1.64-.49,3.35,3.35,0,0,1-1.16-1.47,6.15,6.15,0,0,1-.43-2.41,7.79,7.79,0,0,1,.24-1.93,5.67,5.67,0,0,1,.68-1.66l1.82.74a5.81,5.81,0,0,0-.82,2.87,2.64,2.64,0,0,0,.33,1.48,1,1,0,0,0,.86.48.83.83,0,0,0,.79-.55,9,9,0,0,0,.51-1.69,16.73,16.73,0,0,1,.56-1.94,3.19,3.19,0,0,1,.89-1.29,2.37,2.37,0,0,1,1.64-.54,2.83,2.83,0,0,1,1.62.49,3.35,3.35,0,0,1,1.16,1.49,6,6,0,0,1,.43,2.41A8.48,8.48,0,0,1,51.51,123.63Z"/><path class="cls-2" d="M41.31,115.23v-2.4H51.66v2.4Z"/><path class="cls-2" d="M41.31,110.38v-4.71a6.55,6.55,0,0,1,.64-3,4.87,4.87,0,0,1,1.81-2,5.58,5.58,0,0,1,5.45,0,4.87,4.87,0,0,1,1.81,2,6.55,6.55,0,0,1,.64,3v4.71Zm8.38-4.59a3.44,3.44,0,0,0-.86-2.47,3.42,3.42,0,0,0-4.69,0,3.44,3.44,0,0,0-.86,2.47V108h6.41Z"/><path class="cls-2" d="M49.44,91.49V96.3l2.22.92v2.45L41.31,95.06V92.69l10.35-4.63v2.52Zm-1.82.76-4,1.64,4,1.64Z"/><path class="cls-2" d="M41.31,87V82.28a6.63,6.63,0,0,1,.64-3,4.9,4.9,0,0,1,1.81-2,5.58,5.58,0,0,1,5.45,0,4.9,4.9,0,0,1,1.81,2,6.63,6.63,0,0,1,.64,3V87Zm8.38-4.59a3.48,3.48,0,0,0-.86-2.48,3.45,3.45,0,0,0-4.69,0,3.48,3.48,0,0,0-.86,2.48v2.19h6.41Z"/><path class="cls-2" d="M49.74,66.76h1.92v8H41.31V67h1.92v5.44h2.25v-4.8h1.86v4.8h2.4Z"/><path class="cls-2" d="M46.32,53.67V51.48h4.2a6.32,6.32,0,0,1,1,2,7.79,7.79,0,0,1,.34,2.23,6.06,6.06,0,0,1-.69,2.9,5.06,5.06,0,0,1-1.91,2,5.5,5.5,0,0,1-5.51,0,5,5,0,0,1-1.91-2,6.15,6.15,0,0,1-.69-2.93,6.54,6.54,0,0,1,.46-2.47,5,5,0,0,1,1.33-1.86l1.42,1.54a3.56,3.56,0,0,0-1.17,2.68,3.63,3.63,0,0,0,.42,1.76,2.86,2.86,0,0,0,1.17,1.19,3.66,3.66,0,0,0,3.44,0,3.07,3.07,0,0,0,1.18-1.19,3.49,3.49,0,0,0,.42-1.73,3.86,3.86,0,0,0-.45-1.87Z"/><path class="cls-2" d="M51.66,42.67l-2.88,2v2.2h2.88v2.4H41.31V44.79a5.66,5.66,0,0,1,.46-2.39,3.47,3.47,0,0,1,1.3-1.56,3.55,3.55,0,0,1,2-.55,3.49,3.49,0,0,1,2,.56,3.4,3.4,0,0,1,1.28,1.57l3.33-2.32Zm-7.93.61a2.51,2.51,0,0,0-.47,1.64v1.95h3.61V44.92a2.51,2.51,0,0,0-.47-1.64,1.63,1.63,0,0,0-1.33-.56A1.61,1.61,0,0,0,43.73,43.28Z"/><path class="cls-2" d="M49.44,31.58v4.81l2.22.91v2.46L41.31,35.14V32.78l10.35-4.63v2.51Zm-1.82.76-4,1.64,4,1.64Z"/><path class="cls-2" d="M50.61,26.15a4.74,4.74,0,0,1-3.5,1.23h-5.8V25H47c1.85,0,2.78-.77,2.78-2.31A2.17,2.17,0,0,0,49.13,21a3.13,3.13,0,0,0-2.11-.6H41.31V18h5.8a4.74,4.74,0,0,1,3.5,1.23,4.7,4.7,0,0,1,1.23,3.46A4.7,4.7,0,0,1,50.61,26.15Z"/><path class="cls-2" d="M41.31,11.46V9.06H51.66v2.4Z"/></g></g></svg>