<svg xmlns="http://www.w3.org/2000/svg" viewBox="0 0 60.68 195.47"><defs><style>.cls-1{fill:#ab8476;}.cls-2{fill:#fff;}</style></defs><title>peso5</title><g id="Layer_2" data-name="Layer 2"><g id="Layer_1-2" data-name="Layer 1"><path class="cls-1" d="M60.68,195.47V0H33.17c-6,0-10,6.23-8.7,12.36.1.51.48.77.3,1.24a.85.85,0,0,0-1.17,0,3.23,3.23,0,0,0,.29,2.56c.72.86.88,2.9,1.73,2.94.85,3.09,2.27,5.16,2.11,7.44-.3,4.48-5.84,9.41-11.48,12.07C-.81,46.62,5,60.49,2.34,74c-.88,4.41.25,6.42-1.5,17.91C-.4,100-.24,106.11,1.16,110.55c1,3.18,3.2,5.16,3.47,4.94s-.8-1.7-1.06-4.28.42-5.31.81-5.3c.86,0,1.08,17.4,1.8-1.41a16.15,16.15,0,0,0-.62-4.91c-.89-3.29,8.75-15.8,9.53-22.37A20.54,20.54,0,0,1,17.5,69c1.34-3.14,1.94-9.35,1.69-14.36,0-.78-1,8.81-1.89,18.44-.34,3.67-1.38,4.16-2.55,8.33a38.16,38.16,0,0,1-3.33,8.33c-9.08,21.17.14,34.21-.37,47.84-.38,10,10,40,5.25,46.17-1.79,2.34-2.66,4.37-5.3,6-2.24,1.38-3.79,2-3.75,3.08s4.87,2.94,7.77,2.46,3.17-2.83,6.75-3.54c2.93-.58,4.45-2.08,5-3.47a12,12,0,0,0,.62-7.41,14.32,14.32,0,0,1,.13-6C32.93,140,30,143.91,30,133.54c0-4.22,1.61-10.83,1.88-11.82,1.82-6.63,1.12-16.13,1.07-18,0-.41.25,29.81.2,91.75Z"/><path class="cls-2" d="M44.63,186.11l.51-.78a1.34,1.34,0,0,0,1,.48c.65,0,1-.31,1-.91a.87.87,0,0,0-.28-.68,1.09,1.09,0,0,0-.76-.26h-.18v-.83H46c.58,0,.87-.25.87-.74s-.27-.76-.81-.76a1.13,1.13,0,0,0-.82.4l-.48-.7a1.44,1.44,0,0,1,.57-.4,2,2,0,0,1,.78-.16,2.08,2.08,0,0,1,1.34.39,1.32,1.32,0,0,1,.48,1.09,1.39,1.39,0,0,1-.72,1.27,1.5,1.5,0,0,1,.91,1.43,1.56,1.56,0,0,1-.54,1.27,2.28,2.28,0,0,1-1.5.45A2.13,2.13,0,0,1,44.63,186.11Z"/><path class="cls-2" d="M49.41,186.16l.4-.84a1.89,1.89,0,0,0,1.06.49c.66,0,1-.41,1-1.22a1.39,1.39,0,0,0-.22-.85,1,1,0,0,0-.75-.26,1.28,1.28,0,0,0-.92.46l-.4-.26v-2.84h3.08v.87H50.54v1a1.46,1.46,0,0,1,.62-.12,1.71,1.71,0,0,1,1.3.49,2,2,0,0,1,.45,1.39c0,1.45-.67,2.18-2,2.18A2.25,2.25,0,0,1,49.41,186.16Z"/><path class="cls-2" d="M43.32,183.8v.63l-3.12,1.5V185l2.06-.93-2.06-.93v-.89Z"/><path class="cls-2" d="M52.14,161.27a5.16,5.16,0,0,1-1.91,2,5.3,5.3,0,0,1-7.41-2,6.13,6.13,0,0,1-.69-2.91,6.06,6.06,0,0,1,.69-2.9,5.26,5.26,0,0,1,1.92-2,5.28,5.28,0,0,1,7.4,2,6.07,6.07,0,0,1,.7,2.9A6.13,6.13,0,0,1,52.14,161.27Zm-1.77-4.57a3,3,0,0,0-1.17-1.16,3.51,3.51,0,0,0-1.72-.42,3.44,3.44,0,0,0-1.71.42,3,3,0,0,0-1.18,1.16,3.49,3.49,0,0,0,0,3.32,3,3,0,0,0,1.18,1.16,3.44,3.44,0,0,0,1.71.42,3.51,3.51,0,0,0,1.72-.42A3,3,0,0,0,50.37,160a3.49,3.49,0,0,0,0-3.32Z"/><path class="cls-2" d="M48.21,141.9a2.63,2.63,0,0,1,1.62-.5,2.39,2.39,0,0,1,2.1,1.06,5.45,5.45,0,0,1,.73,3.08v5.35H42.31v-5a5,5,0,0,1,.72-2.91,2.28,2.28,0,0,1,2-1,2.51,2.51,0,0,1,1.34.36,2.46,2.46,0,0,1,.93,1A2.83,2.83,0,0,1,48.21,141.9Zm-4.1,6.61h2.44v-2.38a2.35,2.35,0,0,0-.31-1.34,1.14,1.14,0,0,0-1.83,0,2.44,2.44,0,0,0-.3,1.34Zm6.43-4.22a1,1,0,0,0-1-.48c-.86,0-1.28.64-1.28,1.91v2.79h2.55v-2.79A2.64,2.64,0,0,0,50.54,144.29Z"/><path class="cls-2" d="M50.74,131.57h1.92v8H42.31v-7.82h1.92v5.44h2.25v-4.8h1.86v4.8h2.4Z"/><path class="cls-2" d="M52.5,128.63a5.53,5.53,0,0,1-.86,1.84l-1.81-.81a5.44,5.44,0,0,0,.79-1.58,6.15,6.15,0,0,0,.29-1.84,2.91,2.91,0,0,0-.3-1.5.91.91,0,0,0-.81-.49.75.75,0,0,0-.61.29,2.15,2.15,0,0,0-.39.74c-.1.3-.21.7-.33,1.21a15,15,0,0,1-.56,1.94,3.25,3.25,0,0,1-.9,1.3,2.44,2.44,0,0,1-1.66.54,2.92,2.92,0,0,1-1.63-.49,3.35,3.35,0,0,1-1.16-1.47,6,6,0,0,1-.43-2.41,7.79,7.79,0,0,1,.24-1.93,5.41,5.41,0,0,1,.68-1.66l1.81.74a5.79,5.79,0,0,0-.81,2.87,2.64,2.64,0,0,0,.33,1.48,1,1,0,0,0,.85.48.85.85,0,0,0,.8-.55,9,9,0,0,0,.51-1.69,15,15,0,0,1,.56-1.94,3.19,3.19,0,0,1,.89-1.29,2.37,2.37,0,0,1,1.64-.54,2.83,2.83,0,0,1,1.62.49,3.43,3.43,0,0,1,1.16,1.49,6.15,6.15,0,0,1,.43,2.41A8.49,8.49,0,0,1,52.5,128.63Z"/><path class="cls-2" d="M42.31,120.23v-2.4H52.66v2.4Z"/><path class="cls-2" d="M42.31,115.38v-4.71a6.55,6.55,0,0,1,.64-3,4.8,4.8,0,0,1,1.81-2,5.57,5.57,0,0,1,5.44,0,4.74,4.74,0,0,1,1.81,2,6.56,6.56,0,0,1,.65,3v4.71Zm8.38-4.59a3.49,3.49,0,0,0-.86-2.47,3.42,3.42,0,0,0-4.69,0,3.45,3.45,0,0,0-.87,2.47V113h6.42Z"/><path class="cls-2" d="M50.44,96.49v4.81l2.22.92v2.45l-10.35-4.61V97.69l10.35-4.63v2.52Zm-1.82.76-4,1.64,4,1.64Z"/><path class="cls-2" d="M42.31,92V87.28a6.63,6.63,0,0,1,.64-3,4.84,4.84,0,0,1,1.81-2,5.57,5.57,0,0,1,5.44,0,4.77,4.77,0,0,1,1.81,2,6.63,6.63,0,0,1,.65,3V92Zm8.38-4.59a3.53,3.53,0,0,0-.86-2.48,3.45,3.45,0,0,0-4.69,0,3.49,3.49,0,0,0-.87,2.48v2.19h6.42Z"/><path class="cls-2" d="M50.74,71.76h1.92v8H42.31V72h1.92v5.44h2.25v-4.8h1.86v4.8h2.4Z"/><path class="cls-2" d="M47.32,58.67V56.48h4.2a6.55,6.55,0,0,1,1,2,7.79,7.79,0,0,1,.34,2.23,6.06,6.06,0,0,1-.69,2.9,5.13,5.13,0,0,1-1.91,2,5.52,5.52,0,0,1-5.52,0,5,5,0,0,1-1.9-2,6.15,6.15,0,0,1-.69-2.93,6.36,6.36,0,0,1,.46-2.47,4.89,4.89,0,0,1,1.33-1.86l1.42,1.54a3.56,3.56,0,0,0-1.17,2.68,3.75,3.75,0,0,0,.41,1.76,3,3,0,0,0,1.17,1.19,3.68,3.68,0,0,0,3.45,0,3,3,0,0,0,1.17-1.19,3.49,3.49,0,0,0,.42-1.73,3.85,3.85,0,0,0-.44-1.87Z"/><path class="cls-2" d="M52.66,47.67l-2.89,2v2.2h2.89v2.4H42.31V49.79a5.82,5.82,0,0,1,.45-2.39,3.55,3.55,0,0,1,1.31-1.56,3.85,3.85,0,0,1,4,0,3.46,3.46,0,0,1,1.28,1.57l3.33-2.32Zm-7.94.61a2.51,2.51,0,0,0-.46,1.64v1.95h3.61V49.92a2.45,2.45,0,0,0-.48-1.64,1.87,1.87,0,0,0-2.67,0Z"/><path class="cls-2" d="M50.44,36.58v4.81l2.22.91v2.46L42.31,40.14V37.78l10.35-4.63v2.51Zm-1.82.76-4,1.64,4,1.64Z"/><path class="cls-2" d="M51.61,31.15a4.75,4.75,0,0,1-3.51,1.23H42.31V30H48c1.86,0,2.78-.77,2.78-2.31A2.14,2.14,0,0,0,50.12,26a3.11,3.11,0,0,0-2.11-.6h-5.7V23H48.1a4.75,4.75,0,0,1,3.51,1.23,4.7,4.7,0,0,1,1.23,3.46A4.7,4.7,0,0,1,51.61,31.15Z"/><path class="cls-2" d="M42.31,16.46v-2.4H52.66v2.4Z"/><path class="cls-2" d="M42.31,11.61V9.21H52.66v2.4Z"/></g></g></svg>