<svg xmlns="http://www.w3.org/2000/svg" viewBox="0 0 60.01 195.39"><defs><style>.cls-1{fill:#ab8476;}.cls-2{fill:#fff;}</style></defs><title>peso2</title><g id="Layer_2" data-name="Layer 2"><g id="Layer_1-2" data-name="Layer 1"><path class="cls-1" d="M32.49,0c-6,0-10,6.23-8.7,12.36.11.51.49.77.31,1.24a.87.87,0,0,0-1.18,0,3.31,3.31,0,0,0,.29,2.56c.72.86.89,2.9,1.73,2.94.86,3.09,2.28,5.57,4,6.46.13.07.26,7.24-.71,8.22C25.42,36.65,23.36,37,17.66,39.3c-14.14,5.61-4.31,23-11.06,34.17C4.26,77.32,6,81.22,3.09,92.13c-2.13,7.94-4,14-2.61,18.42,1,3.18,3.21,5.16,3.47,4.94s-.79-1.7-1.05-4.28.41-5.31.8-5.3c.87,0,1.09,17.4,1.8-1.41a15.82,15.82,0,0,0-.62-4.91C4,96.3,13.57,83.76,14.35,77.19c.63-5.31,1.26-6.45,2-8.2,1.33-3.14,1.12-9.47,2.16-14.38l.92,18c-.08,5-.53,6.48-1.91,14.9-2.87,17.51.75,28.26-.29,49.62-.5,10.19,6.52,39.72,1.4,47.07a24.27,24.27,0,0,1-6.81,6.49c-2.24,1.39-3.21,1.38-3.24,2-.05,1.05,2.87,3,5.76,2.56s3.17-2.83,6.75-3.54c2.94-.58,4.45-2.08,5-3.47.82-1.95-.25-3.56-.57-7a22.58,22.58,0,0,1,.43-6.54c5.37-34.83,2.34-31.59,2.37-41.95a94.43,94.43,0,0,1,.83-10.25c4.17-17.42,3.31-59.57,3.31,72.84H60V0Z"/><path class="cls-2" d="M39.93,177v-4.13l-1.16.7v-1a5,5,0,0,0,1.77-1.34H41V177Z"/><path class="cls-2" d="M43.77,173.85a1.54,1.54,0,0,1-.51-.56,1.4,1.4,0,0,1-.2-.69,1.3,1.3,0,0,1,.47-1,1.8,1.8,0,0,1,1.2-.39,1.77,1.77,0,0,1,1.22.39,1.31,1.31,0,0,1,.44,1,1.4,1.4,0,0,1-.24.74,1.67,1.67,0,0,1-.54.55,1.71,1.71,0,0,1,.68.62,1.5,1.5,0,0,1,.32.84,1.63,1.63,0,0,1-.51,1.27,2,2,0,0,1-1.39.45,1.92,1.92,0,0,1-1.37-.45,1.63,1.63,0,0,1-.49-1.27,1.56,1.56,0,0,1,.26-.84A1.9,1.9,0,0,1,43.77,173.85Zm.85.41a1.26,1.26,0,0,0-.75,1.09.85.85,0,0,0,.23.61.82.82,0,0,0,.61.24.92.92,0,0,0,.63-.21.69.69,0,0,0,.25-.56C45.59,175,45.27,174.64,44.62,174.26Zm.2-.8a.91.91,0,0,0,.39-.37,1,1,0,0,0,.16-.5.5.5,0,0,0-.17-.41.72.72,0,0,0-.47-.15c-.44,0-.65.18-.65.56a.75.75,0,0,0,.24.51A1.12,1.12,0,0,0,44.82,173.46Z"/><path class="cls-2" d="M47.93,178.45,47.6,178q.72-.53.72-.84a.4.4,0,0,0-.09-.23.57.57,0,0,1-.37-.5.47.47,0,0,1,.2-.39.76.76,0,0,1,.48-.15.61.61,0,0,1,.47.2.65.65,0,0,1,.2.48,1.72,1.72,0,0,1-.23.9A3.35,3.35,0,0,1,47.93,178.45Z"/><path class="cls-2" d="M50.67,176.55l.4-.83a1.86,1.86,0,0,0,1.07.48c.65,0,1-.4,1-1.21a1.31,1.31,0,0,0-.22-.85.93.93,0,0,0-.75-.27,1.31,1.31,0,0,0-.92.47l-.4-.26v-2.84h3.08v.86H51.8v1a1.49,1.49,0,0,1,.62-.12,1.67,1.67,0,0,1,1.3.49,2,2,0,0,1,.45,1.38c0,1.46-.67,2.19-2,2.19A2.22,2.22,0,0,1,50.67,176.55Z"/><path class="cls-2" d="M38.32,186.59v-.3l1.81-2.66a2.62,2.62,0,0,0,.54-1.35c0-.44-.26-.65-.78-.65a1.08,1.08,0,0,0-1,.63l-.69-.54a1.73,1.73,0,0,1,.64-.68,1.78,1.78,0,0,1,1-.27,2.12,2.12,0,0,1,1.38.4,1.33,1.33,0,0,1,.5,1.11,3.25,3.25,0,0,1-.64,1.62l-1.17,1.79h2.15v.9Z"/><path class="cls-2" d="M46.24,185.09v1.5h-1v-1.5h-2.6v-.58l3.14-3.67h.44v3.45h.58v.8Zm-1-2.52-1.46,1.72h1.46Z"/><path class="cls-2" d="M47.93,188.05l-.33-.42q.72-.54.72-.84a.35.35,0,0,0-.09-.23.57.57,0,0,1-.37-.51.5.5,0,0,1,.2-.39.76.76,0,0,1,.48-.15.68.68,0,0,1,.67.68,1.72,1.72,0,0,1-.23.9A3.13,3.13,0,0,1,47.93,188.05Z"/><path class="cls-2" d="M51.79,186.7l-.54-.57a3.81,3.81,0,0,0,1.68-1.72,1.58,1.58,0,0,1-.67.12A1.71,1.71,0,0,1,51,184a1.85,1.85,0,0,1-.49-1.36,1.89,1.89,0,0,1,.5-1.38,1.69,1.69,0,0,1,1.27-.52c1.33,0,2,.83,2,2.51a3.59,3.59,0,0,1-.78,2.12A3,3,0,0,1,51.79,186.7Zm-.28-4.07a1.17,1.17,0,0,0,.23.76.7.7,0,0,0,.58.28c.58,0,.87-.33.87-1s-.29-1.06-.89-1.06a.68.68,0,0,0-.57.27A1.1,1.1,0,0,0,51.51,182.63Z"/><path class="cls-2" d="M41.44,93.5a3.43,3.43,0,0,1,3.3-2.1,3.64,3.64,0,0,1,2,.54A3.51,3.51,0,0,1,48,93.5a5.89,5.89,0,0,1,.45,2.39V98h2.86v2.39H41V95.89A5.89,5.89,0,0,1,41.44,93.5Zm4.62.88a1.63,1.63,0,0,0-1.32-.56,1.66,1.66,0,0,0-1.34.56A2.55,2.55,0,0,0,42.94,96v2h3.59V96A2.5,2.5,0,0,0,46.06,94.38Z"/><path class="cls-2" d="M49.41,81.68h1.93v8H41V81.87h1.92v5.45h2.25V82.51H47v4.81h2.39Z"/><path class="cls-2" d="M51.18,78.75a5.63,5.63,0,0,1-.86,1.84l-1.81-.81a5.63,5.63,0,0,0,.79-1.59,6.13,6.13,0,0,0,.29-1.83,3,3,0,0,0-.3-1.51.93.93,0,0,0-.81-.49.78.78,0,0,0-.61.29,2.25,2.25,0,0,0-.39.74c-.1.3-.21.71-.33,1.22a16.73,16.73,0,0,1-.56,1.94,3.21,3.21,0,0,1-.9,1.29,2.46,2.46,0,0,1-1.66.54,2.84,2.84,0,0,1-1.63-.49,3.17,3.17,0,0,1-1.16-1.47,5.89,5.89,0,0,1-.43-2.4,7.87,7.87,0,0,1,.24-1.94,5.35,5.35,0,0,1,.68-1.65l1.81.74A5.77,5.77,0,0,0,42.73,76a2.66,2.66,0,0,0,.33,1.48,1,1,0,0,0,.85.48.83.83,0,0,0,.79-.55,7.83,7.83,0,0,0,.51-1.7,16.27,16.27,0,0,1,.57-1.93,3.14,3.14,0,0,1,.88-1.3A2.41,2.41,0,0,1,48.31,72a2.79,2.79,0,0,1,1.61.5A3.26,3.26,0,0,1,51.08,74a6,6,0,0,1,.43,2.41A8.6,8.6,0,0,1,51.18,78.75Z"/><path class="cls-2" d="M50.82,68.24a5.12,5.12,0,0,1-1.92,2,5.29,5.29,0,0,1-7.4-2,6.13,6.13,0,0,1-.69-2.91,6,6,0,0,1,.69-2.9,5.19,5.19,0,0,1,1.92-2,5.29,5.29,0,0,1,7.4,2,6,6,0,0,1,.69,2.9A6.13,6.13,0,0,1,50.82,68.24Zm-1.77-4.57a3,3,0,0,0-1.17-1.16,3.51,3.51,0,0,0-1.72-.42,3.44,3.44,0,0,0-1.71.42,3,3,0,0,0-1.18,1.16,3.49,3.49,0,0,0,0,3.32,3,3,0,0,0,1.18,1.16,3.44,3.44,0,0,0,1.71.42,3.51,3.51,0,0,0,1.72-.42A3,3,0,0,0,49.05,67a3.49,3.49,0,0,0,0-3.32Z"/><path class="cls-2" d="M41,53.68v-2.4H51.34v2.4Z"/><path class="cls-2" d="M41,48.83v-4.7a6.57,6.57,0,0,1,.64-3,4.72,4.72,0,0,1,1.81-2,5.5,5.5,0,0,1,5.44,0,4.72,4.72,0,0,1,1.81,2,6.57,6.57,0,0,1,.65,3v4.7Zm8.38-4.59a3.45,3.45,0,0,0-.87-2.47,3.41,3.41,0,0,0-4.68,0A3.45,3.45,0,0,0,43,44.24v2.19h6.42Z"/><path class="cls-2" d="M49.41,28.6h1.93v8H41V28.79h1.92v5.44h2.25v-4.8H47v4.8h2.39Z"/><path class="cls-2" d="M49.12,19.88v4.8l2.22.92v2.45L41,23.44V21.07l10.35-4.62V19Zm-1.82.75-4,1.64,4,1.64Z"/><path class="cls-2" d="M41,15.37V13h8.39V7.78h2v7.59Z"/></g></g></svg>