<svg xmlns="http://www.w3.org/2000/svg" viewBox="0 0 60.01 195.47"><defs><style>.cls-1{fill:#ab8476;}.cls-2{fill:#fff;}</style></defs><title>peso3</title><g id="Layer_2" data-name="Layer 2"><g id="Layer_1-2" data-name="Layer 1"><path class="cls-1" d="M60,195.47V0H32.49c-6,0-10,6.23-8.7,12.36.11.51.49.77.31,1.24a.87.87,0,0,0-1.18,0,3.31,3.31,0,0,0,.29,2.56c.72.86.89,2.9,1.73,2.94.86,3.09,1.61,5.83,3.38,6.72.13.07.3,6.73-.66,7.71-2.87,2.92-4.48,3-10.25,5.08C2.49,43.88,10.16,62.8,6.6,73.47,5.18,77.74,6,81.22,3.09,92.13c-2.13,7.94-4,14-2.61,18.42,1,3.18,3.21,5.16,3.47,4.94s-.79-1.7-1.05-4.28.41-5.31.8-5.3c.87,0,1.09,17.4,1.8-1.41a32.11,32.11,0,0,0-.09-5c-.89-3.29,8.16-15.76,8.94-22.33.63-5.31,1.26-6.45,2-8.2a38.18,38.18,0,0,0,2.16-14.38c0-.78,0,8.13-.19,18-.06,3.73-1.19,4.29-2.1,8.52-.3,1.41,0,4.5-.69,6.5-6.25,17.21,1.86,28.33.82,49.69-.5,10.19,6.68,39.38,1.56,46.73a23,23,0,0,1-6.56,6.37c-2.25,1.38-3.24,1.09-3.19,2.13s3.29,3.15,6.18,2.67,3.17-2.83,6.75-3.54c2.94-.58,4.45-2.08,5-3.47.82-1.95.45-3.76-.17-7.12a15.92,15.92,0,0,1,0-6.38c5.37-34.83,1.71-31.46,1.75-41.83,0-4.22,2.13-10.47,2.34-11.47,1.28-6.15,1.92-17.6,2.23-17.75s.25,29.81.2,91.75Z"/><path class="cls-2" d="M38.09,177v-.3L39.9,174a2.59,2.59,0,0,0,.55-1.35c0-.43-.26-.64-.78-.64a1.09,1.09,0,0,0-1,.62l-.68-.53a1.63,1.63,0,0,1,.64-.69,1.78,1.78,0,0,1,1-.27,2.11,2.11,0,0,1,1.37.4,1.36,1.36,0,0,1,.5,1.11,3.15,3.15,0,0,1-.64,1.63l-1.17,1.79h2.15v.9Z"/><path class="cls-2" d="M42.82,176.55l.4-.83a1.87,1.87,0,0,0,1.06.48c.66,0,1-.4,1-1.21a1.31,1.31,0,0,0-.22-.85.93.93,0,0,0-.75-.27,1.31,1.31,0,0,0-.92.47l-.4-.26v-2.84h3.08v.86H44v1a1.46,1.46,0,0,1,.62-.12,1.67,1.67,0,0,1,1.3.49,2,2,0,0,1,.45,1.38c0,1.46-.67,2.19-2,2.19A2.22,2.22,0,0,1,42.82,176.55Z"/><path class="cls-2" d="M47.71,178.45l-.34-.43q.72-.53.72-.84A.46.46,0,0,0,48,177a.55.55,0,0,1-.37-.5.47.47,0,0,1,.19-.39.77.77,0,0,1,.49-.15.63.63,0,0,1,.47.2.69.69,0,0,1,.2.48,1.83,1.83,0,0,1-.23.9A3.61,3.61,0,0,1,47.71,178.45Z"/><path class="cls-2" d="M50.09,174a3.35,3.35,0,0,1,.57-2,1.78,1.78,0,0,1,1.53-.81c1.33,0,2,1,2,2.92a3.85,3.85,0,0,1-.54,2.17,1.71,1.71,0,0,1-1.51.82,1.73,1.73,0,0,1-1.55-.75A4.4,4.4,0,0,1,50.09,174Zm1,.07a4.66,4.66,0,0,0,.23,1.69.76.76,0,0,0,.74.54.82.82,0,0,0,.79-.49,4.58,4.58,0,0,0,.23-1.73,4,4,0,0,0-.22-1.61.78.78,0,0,0-.74-.44C51.49,172,51.14,172.66,51.14,174Z"/><path class="cls-2" d="M38.09,186.59v-.3l1.81-2.66a2.66,2.66,0,0,0,.55-1.35c0-.44-.26-.65-.78-.65a1.08,1.08,0,0,0-1,.63l-.68-.54a1.66,1.66,0,0,1,.64-.68,1.78,1.78,0,0,1,1-.27,2.11,2.11,0,0,1,1.37.4,1.33,1.33,0,0,1,.5,1.11,3.15,3.15,0,0,1-.64,1.62l-1.17,1.79h2.15v.9Z"/><path class="cls-2" d="M43.94,186.7l-.54-.57a3.81,3.81,0,0,0,1.68-1.72,1.61,1.61,0,0,1-.67.12,1.71,1.71,0,0,1-1.29-.5,1.85,1.85,0,0,1-.5-1.36,1.9,1.9,0,0,1,.51-1.38,1.67,1.67,0,0,1,1.26-.52c1.34,0,2,.83,2,2.51a3.57,3.57,0,0,1-.77,2.12A3,3,0,0,1,43.94,186.7Zm-.28-4.07a1.17,1.17,0,0,0,.23.76.69.69,0,0,0,.57.28c.59,0,.88-.33.88-1s-.3-1.06-.89-1.06a.72.72,0,0,0-.58.27A1.15,1.15,0,0,0,43.66,182.63Z"/><path class="cls-2" d="M47.71,188.05l-.34-.42q.72-.54.72-.84a.4.4,0,0,0-.08-.23.55.55,0,0,1-.37-.51.49.49,0,0,1,.19-.39.77.77,0,0,1,.49-.15.67.67,0,0,1,.47.2.69.69,0,0,1,.2.48,1.83,1.83,0,0,1-.23.9A3.35,3.35,0,0,1,47.71,188.05Z"/><path class="cls-2" d="M51.57,186.7l-.54-.57a3.81,3.81,0,0,0,1.68-1.72,1.64,1.64,0,0,1-.67.12,1.72,1.72,0,0,1-1.3-.5,1.85,1.85,0,0,1-.49-1.36,1.93,1.93,0,0,1,.5-1.38,1.69,1.69,0,0,1,1.27-.52c1.33,0,2,.83,2,2.51a3.64,3.64,0,0,1-.77,2.12A3.07,3.07,0,0,1,51.57,186.7Zm-.29-4.07a1.17,1.17,0,0,0,.23.76.71.71,0,0,0,.58.28c.58,0,.87-.33.87-1s-.29-1.06-.88-1.06a.7.7,0,0,0-.58.27A1.15,1.15,0,0,0,51.28,182.63Z"/><path class="cls-2" d="M48.43,125.56v4.8l2.21.92v2.45l-10.35-4.61v-2.37l10.35-4.63v2.52Zm-1.82.75-4,1.64,4,1.64Z"/><path class="cls-2" d="M50.13,119.1a5.11,5.11,0,0,1-1.9,2,5.58,5.58,0,0,1-5.52,0,5.2,5.2,0,0,1-1.91-2,6.47,6.47,0,0,1-.21-5.31A4.82,4.82,0,0,1,42,112l1.42,1.53a3.31,3.31,0,0,0-1.21,2.61,3.44,3.44,0,0,0,.42,1.71A3,3,0,0,0,43.75,119a3.51,3.51,0,0,0,1.72.42,3.44,3.44,0,0,0,1.71-.42,2.91,2.91,0,0,0,1.18-1.18,3.44,3.44,0,0,0,.42-1.71,3.3,3.3,0,0,0-1.23-2.61L49,112a4.83,4.83,0,0,1,1.38,1.83,6.17,6.17,0,0,1,.47,2.44A5.93,5.93,0,0,1,50.13,119.1Z"/><path class="cls-2" d="M40.29,110.36V108H50.64v2.4Z"/><path class="cls-2" d="M50.64,96.09H44.43l5.12,3.05v1.08l-5,3h6.07v2.25H40.29v-2l6.44-3.87-6.44-3.81v-2l10.35,0Z"/><path class="cls-2" d="M48.43,84.57v4.8l2.21.92v2.45L40.29,88.13V85.77l10.35-4.63v2.51Zm-1.82.75-4,1.64,4,1.65Z"/><path class="cls-2" d="M40.29,75.87v-4.7a6.63,6.63,0,0,1,.65-3,4.84,4.84,0,0,1,1.81-2,5.57,5.57,0,0,1,5.44,0,4.84,4.84,0,0,1,1.81,2,6.63,6.63,0,0,1,.64,3v4.7Zm8.39-4.58a3.49,3.49,0,0,0-.87-2.48,3.45,3.45,0,0,0-4.69,0,3.53,3.53,0,0,0-.86,2.48v2.19h6.42Z"/><path class="cls-2" d="M50.13,61.55a5.37,5.37,0,0,1-7.4,2,5.08,5.08,0,0,1-1.92-2,6.44,6.44,0,0,1,0-5.8,5.35,5.35,0,0,1,7.4-2,5.26,5.26,0,0,1,1.92,2,6.44,6.44,0,0,1,0,5.8ZM48.36,57a3,3,0,0,0-1.18-1.16,3.44,3.44,0,0,0-1.71-.42,3.51,3.51,0,0,0-1.72.42A3,3,0,0,0,42.58,57a3.49,3.49,0,0,0,0,3.32,3.1,3.1,0,0,0,1.17,1.16,3.51,3.51,0,0,0,1.72.42,3.44,3.44,0,0,0,1.71-.42,3.06,3.06,0,0,0,1.18-1.16,3.49,3.49,0,0,0,0-3.32Z"/><path class="cls-2" d="M40.75,40.13A3.71,3.71,0,0,1,46,38.57a3.47,3.47,0,0,1,1.3,1.56,5.86,5.86,0,0,1,.45,2.39V44.6h2.85V47H40.29V42.52A5.85,5.85,0,0,1,40.75,40.13Zm4.62.88a1.6,1.6,0,0,0-1.32-.56,1.63,1.63,0,0,0-1.34.56,2.51,2.51,0,0,0-.46,1.64v2h3.59v-2A2.51,2.51,0,0,0,45.37,41Z"/><path class="cls-2" d="M48.72,28.31h1.92v8H40.29V28.5h1.93v5.44h2.24v-4.8h1.87v4.8h2.39Z"/><path class="cls-2" d="M50.49,25.37a5.34,5.34,0,0,1-.87,1.84l-1.8-.81a5.42,5.42,0,0,0,.78-1.58A5.86,5.86,0,0,0,48.9,23a2.91,2.91,0,0,0-.3-1.5.92.92,0,0,0-.81-.49.73.73,0,0,0-.61.29,2.09,2.09,0,0,0-.4.74c-.09.3-.2.7-.32,1.22a16.49,16.49,0,0,1-.56,1.93,3.18,3.18,0,0,1-.9,1.3,2.46,2.46,0,0,1-1.66.54,2.9,2.9,0,0,1-1.63-.49,3.37,3.37,0,0,1-1.17-1.47,6.16,6.16,0,0,1-.42-2.41,7.78,7.78,0,0,1,.23-1.93A6,6,0,0,1,41,19.05l1.82.74A5.79,5.79,0,0,0,42,22.66a2.77,2.77,0,0,0,.32,1.49,1,1,0,0,0,.86.48.84.84,0,0,0,.79-.56,9,9,0,0,0,.51-1.69,19,19,0,0,1,.56-1.94A3.29,3.29,0,0,1,46,19.15a2.38,2.38,0,0,1,1.64-.54,2.83,2.83,0,0,1,1.62.49,3.29,3.29,0,0,1,1.16,1.49A6,6,0,0,1,50.82,23,8.48,8.48,0,0,1,50.49,25.37Z"/><path class="cls-2" d="M50.13,14.86a5.37,5.37,0,0,1-7.4,2,5.14,5.14,0,0,1-1.92-2A6.07,6.07,0,0,1,40.12,12a6,6,0,0,1,.69-2.89,5.19,5.19,0,0,1,4.66-2.77A5.21,5.21,0,0,1,48.21,7a5.29,5.29,0,0,1,1.92,2A6,6,0,0,1,50.82,12,6.07,6.07,0,0,1,50.13,14.86ZM48.36,10.3a3,3,0,0,0-1.18-1.16,3.44,3.44,0,0,0-1.71-.42,3.51,3.51,0,0,0-1.72.42,3,3,0,0,0-1.17,1.16,3.47,3.47,0,0,0,0,3.31,3,3,0,0,0,1.17,1.16,3.51,3.51,0,0,0,1.72.42,3.44,3.44,0,0,0,1.71-.42,3,3,0,0,0,1.18-1.16,3.47,3.47,0,0,0,0-3.31Z"/></g></g></svg>