<svg xmlns="http://www.w3.org/2000/svg" viewBox="0 0 60.01 195.39"><defs><style>.cls-1{fill:#ab8476;}.cls-2{fill:#fff;}</style></defs><title>peso1</title><g id="Layer_2" data-name="Layer 2"><g id="Layer_1-2" data-name="Layer 1"><path class="cls-1" d="M32.49,0c-6,0-10,6.23-8.7,12.36.11.51.49.77.31,1.24a.87.87,0,0,0-1.18,0,3.31,3.31,0,0,0,.29,2.56c.72.86.89,2.9,1.73,2.94.86,3.09,2.28,5.57,4,6.46.13.07,0,7-.71,8.22-1.7,2.83-4.62,3.9-10.23,6.38C2.64,46.92,14,62.42,7.26,73.55,4.92,77.4,6,81.22,3.09,92.13c-2.13,7.94-4,14-2.61,18.42,1,3.18,3.21,5.16,3.47,4.94s-.79-1.7-1.05-4.28.41-5.31.8-5.3c.87,0,1.09,17.4,1.8-1.41a15.82,15.82,0,0,0-.62-4.91C4,96.3,13,83.76,13.76,77.19c.63-5.31,1.17-6.29,1.92-8C17,66,17.47,59.52,18.51,54.61l1.67,18c-.09,5-.55,6.44-1.93,14.86-2.86,17.52.64,28.42-.41,49.79-.5,10.18,5.91,39.59.79,46.94a24.27,24.27,0,0,1-6.81,6.49c-2.24,1.39-3.21,1.38-3.24,2-.05,1.05,2.87,3,5.76,2.56s3.17-2.83,6.75-3.54c2.94-.58,4.45-2.08,5-3.47.82-1.95-.25-3.56-.57-7a24.93,24.93,0,0,1,.43-6.54c4.58-34.54,1.13-31.36,1.16-41.73a49.73,49.73,0,0,1,1.62-10.22c4.7-17.06,3.73-59.82,3.73,72.59H60V0Z"/><path class="cls-2" d="M36.05,184.41v-.62l3.12-1.5v.89l-2.06.92,2.06.94v.89Z"/><path class="cls-2" d="M42.21,186.59v-4.13l-1.17.7v-1a5.08,5.08,0,0,0,1.78-1.35h.4v5.75Z"/><path class="cls-2" d="M46.05,183.46a1.62,1.62,0,0,1-.51-.56,1.31,1.31,0,0,1-.2-.7,1.3,1.3,0,0,1,.46-1,2.13,2.13,0,0,1,2.43,0,1.35,1.35,0,0,1,.44,1.06,1.33,1.33,0,0,1-.25.73,1.5,1.5,0,0,1-.54.55,1.73,1.73,0,0,1,.69.62,1.48,1.48,0,0,1,.31.84,1.6,1.6,0,0,1-.51,1.27,2,2,0,0,1-1.39.45,2,2,0,0,1-1.37-.44,1.66,1.66,0,0,1-.48-1.28,1.61,1.61,0,0,1,.26-.84A1.87,1.87,0,0,1,46.05,183.46Zm.84.41a1.22,1.22,0,0,0-.74,1.08.81.81,0,0,0,.23.61.76.76,0,0,0,.6.25.92.92,0,0,0,.64-.22.69.69,0,0,0,.25-.56C47.87,184.64,47.54,184.25,46.89,183.87Zm.2-.8a.94.94,0,0,0,.39-.38,1,1,0,0,0,.17-.5.51.51,0,0,0-.18-.41.7.7,0,0,0-.47-.15c-.43,0-.65.19-.65.57a.79.79,0,0,0,.24.51A1.47,1.47,0,0,0,47.09,183.07Z"/><path class="cls-2" d="M50.21,188.05l-.33-.42c.47-.36.71-.64.71-.84a.4.4,0,0,0-.08-.23.55.55,0,0,1-.37-.51.49.49,0,0,1,.19-.39.77.77,0,0,1,.49-.15.67.67,0,0,1,.47.2.69.69,0,0,1,.2.48,1.83,1.83,0,0,1-.23.9A3.35,3.35,0,0,1,50.21,188.05Z"/><path class="cls-2" d="M52.94,186.16l.4-.84a1.92,1.92,0,0,0,1.07.49c.66,0,1-.41,1-1.22a1.33,1.33,0,0,0-.23-.85.93.93,0,0,0-.74-.26,1.3,1.3,0,0,0-.93.46l-.4-.26v-2.84h3.08v.87h-2.1v1a1.46,1.46,0,0,1,.62-.12,1.73,1.73,0,0,1,1.3.49,2,2,0,0,1,.45,1.39c0,1.45-.68,2.18-2,2.18A2.27,2.27,0,0,1,52.94,186.16Z"/><path class="cls-2" d="M49.78,136.56v4.8l2.22.92v2.45l-10.35-4.61v-2.37L52,133.12v2.52Zm-1.82.75L44,139l4,1.64Z"/><path class="cls-2" d="M47.55,123.06a2.57,2.57,0,0,1,1.62-.51,2.39,2.39,0,0,1,2.09,1.06,5.39,5.39,0,0,1,.74,3.08v5.36H41.65V127a5,5,0,0,1,.72-2.91,2.3,2.3,0,0,1,2-1,2.51,2.51,0,0,1,1.34.36,2.42,2.42,0,0,1,.93,1A2.68,2.68,0,0,1,47.55,123.06Zm-4.1,6.61h2.44v-2.38a2.36,2.36,0,0,0-.31-1.35,1.14,1.14,0,0,0-1.83,0,2.45,2.45,0,0,0-.3,1.35Zm6.43-4.23a1.06,1.06,0,0,0-1-.48c-.86,0-1.29.64-1.29,1.91v2.8h2.56v-2.8A2.64,2.64,0,0,0,49.88,125.44Z"/><path class="cls-2" d="M49.78,113.92v4.8l2.22.92v2.45l-10.35-4.61v-2.36L52,110.49V113Zm-1.82.75-4,1.64L48,118Z"/><path class="cls-2" d="M41.65,109.41V107H52v2.4Z"/><path class="cls-2" d="M52,98l-3.6,2.5L52,103v2.75l-5.27-3.83-5.08,3.64v-2.72L45,100.45l-3.35-2.34V95.52l5,3.61L52,95.27Z"/><path class="cls-2" d="M51.48,92.26a5.08,5.08,0,0,1-1.92,2,5.28,5.28,0,0,1-7.4-2,6.44,6.44,0,0,1,0-5.8,5.19,5.19,0,0,1,1.92-2,5.29,5.29,0,0,1,7.4,2,6.44,6.44,0,0,1,0,5.8ZM49.71,87.7a3,3,0,0,0-1.17-1.16,3.51,3.51,0,0,0-1.72-.42,3.44,3.44,0,0,0-1.71.42,3,3,0,0,0-1.18,1.16,3.33,3.33,0,0,0-.42,1.66A3.27,3.27,0,0,0,43.93,91a3,3,0,0,0,1.18,1.17,3.44,3.44,0,0,0,1.71.42,3.51,3.51,0,0,0,1.72-.42A3.06,3.06,0,0,0,49.71,91a3.27,3.27,0,0,0,.42-1.65A3.33,3.33,0,0,0,49.71,87.7Z"/><path class="cls-2" d="M41.65,77.71V73a6.57,6.57,0,0,1,.64-3,4.72,4.72,0,0,1,1.81-2,5.5,5.5,0,0,1,5.44,0,4.72,4.72,0,0,1,1.81,2A6.57,6.57,0,0,1,52,73v4.7ZM50,73.12a3.45,3.45,0,0,0-.87-2.47,3.41,3.41,0,0,0-4.68,0,3.45,3.45,0,0,0-.87,2.47v2.19H50Z"/><path class="cls-2" d="M51.48,63.39a5.12,5.12,0,0,1-1.92,2,5.29,5.29,0,0,1-7.4-2,6.46,6.46,0,0,1,0-5.81,5.25,5.25,0,0,1,1.92-2,5.44,5.44,0,0,1,5.48,0,5.18,5.18,0,0,1,1.92,2,6.46,6.46,0,0,1,0,5.81Zm-1.77-4.56a3.06,3.06,0,0,0-1.17-1.17,3.51,3.51,0,0,0-1.72-.42,3.44,3.44,0,0,0-1.71.42,3,3,0,0,0-1.18,1.17,3.27,3.27,0,0,0-.42,1.65,3.33,3.33,0,0,0,.42,1.66,3,3,0,0,0,1.18,1.16,3.44,3.44,0,0,0,1.71.42,3.51,3.51,0,0,0,1.72-.42,3,3,0,0,0,1.17-1.16,3.33,3.33,0,0,0,.42-1.66A3.27,3.27,0,0,0,49.71,58.83Z"/><path class="cls-2" d="M42.1,42a3.46,3.46,0,0,1,3.3-2.11,3.64,3.64,0,0,1,2,.55A3.51,3.51,0,0,1,48.69,42a5.86,5.86,0,0,1,.45,2.39v2.08H52v2.4H41.65V44.35A5.86,5.86,0,0,1,42.1,42Zm4.62.88a1.63,1.63,0,0,0-1.32-.56,1.66,1.66,0,0,0-1.34.56,2.52,2.52,0,0,0-.46,1.64v2h3.59v-2A2.47,2.47,0,0,0,46.72,42.84Z"/><path class="cls-2" d="M50.07,30.14H52v8H41.65V30.33h1.92v5.44h2.25V31h1.86v4.8h2.39Z"/><path class="cls-2" d="M51.84,27.21A5.73,5.73,0,0,1,51,29.05l-1.81-.82A5.44,5.44,0,0,0,50,26.65a6.13,6.13,0,0,0,.29-1.83,3,3,0,0,0-.3-1.51.91.91,0,0,0-.81-.49.78.78,0,0,0-.61.29,2.25,2.25,0,0,0-.39.74c-.1.3-.21.71-.33,1.22A17.34,17.34,0,0,1,47.25,27a3.21,3.21,0,0,1-.9,1.29,2.46,2.46,0,0,1-1.66.54,2.84,2.84,0,0,1-1.63-.49,3.17,3.17,0,0,1-1.16-1.47,6,6,0,0,1-.43-2.4,7.87,7.87,0,0,1,.24-1.94,5.51,5.51,0,0,1,.68-1.66l1.81.74a5.82,5.82,0,0,0-.81,2.87A2.67,2.67,0,0,0,43.72,26a1,1,0,0,0,.85.48.84.84,0,0,0,.79-.56,7.71,7.71,0,0,0,.51-1.69,17.11,17.11,0,0,1,.57-1.94A3.17,3.17,0,0,1,47.32,21,2.41,2.41,0,0,1,49,20.44a2.79,2.79,0,0,1,1.61.5,3.26,3.26,0,0,1,1.16,1.48,6,6,0,0,1,.43,2.41A8.6,8.6,0,0,1,51.84,27.21Z"/><path class="cls-2" d="M51.48,16.69a5.08,5.08,0,0,1-1.92,2,5.28,5.28,0,0,1-7.4-2,6.06,6.06,0,0,1-.69-2.9,6,6,0,0,1,.69-2.9,5.28,5.28,0,0,1,1.92-2,5.28,5.28,0,0,1,7.4,2,6,6,0,0,1,.69,2.9A6.06,6.06,0,0,1,51.48,16.69Zm-1.77-4.56A3,3,0,0,0,48.54,11a3.51,3.51,0,0,0-1.72-.42,3.44,3.44,0,0,0-1.71.42,3,3,0,0,0-1.18,1.16,3.3,3.3,0,0,0-.42,1.66,3.27,3.27,0,0,0,.42,1.65,2.93,2.93,0,0,0,1.18,1.16,3.44,3.44,0,0,0,1.71.43,3.51,3.51,0,0,0,1.72-.43,3,3,0,0,0,1.17-1.16,3.27,3.27,0,0,0,.42-1.65A3.3,3.3,0,0,0,49.71,12.13Z"/></g></g></svg>